<svg xmlns="http://www.w3.org/2000/svg" xml:space="preserve" style="fill-rule:evenodd;clip-rule:evenodd;stroke-linejoin:round;stroke-miterlimit:2" viewBox="0 0 557 415"><path d="M287.34 71.592h94v414h-94z" style="fill:#333" transform="translate(-103.215 -71.592)"/><path d="M287.34 71.592h94v414h-94z" style="fill:#333" transform="translate(174.785 -71.592)"/><path d="M287.793 485.342s.566-50.104 21.375-99.305c12.851-30.388 37.381-66.943 68.691-93.126 43.035-35.989 81.264-52.578 163.53-60.211 14.972-1.389 43.099 2.512 64.9-.545 21.098-2.959 36.827-6.91 53.718-15.813l.382 99.269s-23.603 8.868-57.227 11.486c-33.145 2.58-76.027-7.378-115.637 8.623-8.408 3.396-19.433 7.11-29.028 12.79-16.703 9.887-32.117 23.697-43.719 37.568-21.315 25.482-24.977 60.569-32.232 99.347zM109.09 190.83c.634-1.479 21.338-3.816 43.229-1.568 9.313.957 16.492 2.09 26.238 5.402 10.665 3.625 23.624 9.491 34.079 18.125 15.439 12.752 26.618 28.715 26.618 28.715s33.123 53.336 17.836 96.659c0 0-34.275 9.605-61.59.505-5.421-1.806-12.342-3.509-19.002-6.315-9.451-3.981-18.784-9.575-26.055-15.596-22.181-18.368-35.505-42.63-41.847-69.121-2.336-9.756-4.23-19.927-4.373-30.018-.129-9.116 1.172-18.167 4.867-26.788" style="fill:#3858e9" transform="translate(-104.215 -71.592)"/></svg>