<svg xmlns="http://www.w3.org/2000/svg" viewBox="0 0 512 512"><path d="M464.2 226.987h-42.7c-22.2 0-37.5 29-37.5 47.8v22.2c0 18.3 13 33.4 31.1 37.3.7.2 1.3.8 1.3 1.6v34.7c0 .9-.7 1.6-1.6 1.6h-316c-.9 0-1.6-.7-1.6-1.6v-34.7c0-.8.5-1.4 1.3-1.6 18.1-3.9 31.1-19 31.1-37.3v-22.2c0-18.8-15.4-47.8-37.5-47.8H49.5c-27.3 0-49.5 30.7-49.5 58v141.7c0 25.6 20.5 41 49.5 41h414.7c29 0 47.8-17.1 47.8-41v-141.7c0-23.9-18.8-58-47.8-58zm10.3 58v135.5c0 7.2-5.8 13-13 13h-412c-1.7 0-15.4 0-15.4-10.2v-138.3c0-18 1.9-23.9 15.4-23.9h40.8c2.9 0 5.3 2.4 5.3 5.3v29c0 2.8-2.3 5-5 5h-8.8c-10.3 0-18.7 8.4-18.7 18.7v70.1c0 10.2 8.5 17.1 17.1 17.1h348.3c10.3 0 18.7-8.4 18.7-18.7v-70.1c0-8.5-6.8-17.1-17.1-17.1h-9.2c-3.4 0-6.1-2.8-6.1-6.1v-27.8c0-3 2.4-5.4 5.4-5.4h47.4c3.8 0 6.9 3.1 6.9 6.9v17z"/><path d="m365.3 139.887-81.9-85.3c-13.7-13.7-39.3-13.7-52.9 0l-85.3 85.3c-15.4 15.4-15.4 39.3 0 52.9l13.5 13.7c11.3 11.3 30.4 13.5 45.4 4.9 1.1-.6 2.4.1 2.4 1.4v97.9c0 11.9 5.1 30.7 39.3 30.7h20.5c32.4 0 37.5-18.8 37.5-30.7v-96c0-1.2 1.3-2 2.4-1.4 13.6 8.4 32.5 6.1 45.4-6.8l13.7-13.7c15.4-15.4 15.4-39.3 0-52.9zm-25.1 30.2-12 12c-1.7 1.7-4.9 1.3-6.6-.5l-22.9-22.9c-5.1-5.1-11.9-6.8-18.8-3.4s-10.2 8.5-10.2 15.4v131.5c0 1.9-1.5 3.4-3.4 3.4h-22.7c-1.6 0-2.9-1.3-2.9-2.9v-133.7c0-6.8-3.4-13.7-10.2-15.4-6.8-3.4-13.7-1.7-18.8 3.4l-23.9 25.6c-1.7 1.7-3.4 1.7-5.1 0l-13.7-14.2c-1.5-1.5-1.4-3.9.1-5.4 14.7-14.4 83.5-82.8 83.5-82.8 1.7-1.7 3.4-1.7 5.1 0l82.5 82.5c2 2.001 2 5.3 0 7.4z"/></svg>
