<svg xmlns="http://www.w3.org/2000/svg" viewBox="0 0 512 512"><path d="M320 149.333v-42.667C320 83.109 300.891 64 277.333 64h-42.667C211.109 64 192 83.109 192 106.667v42.667C192 172.891 211.109 192 234.667 192h42.667C300.891 192 320 172.891 320 149.333zm-42.667 0h-42.667v-42.667h42.667v42.667zM170.667 192H128c-23.558 0-42.667 19.109-42.667 42.667v42.667C85.333 300.891 104.442 320 128 320h42.667c23.558 0 42.667-19.109 42.667-42.667v-42.667C213.333 211.109 194.225 192 170.667 192zm0 85.333H128v-42.667h42.667v42.667zM85.333 320H42.667C19.109 320 0 339.109 0 362.667v42.667C0 428.891 19.109 448 42.667 448h42.667C108.891 448 128 428.891 128 405.333v-42.667C128 339.109 108.891 320 85.333 320zm0 85.333H42.667v-42.667h42.667v42.667zM469.333 320h-42.667C403.109 320 384 339.109 384 362.667v42.667C384 428.891 403.109 448 426.667 448h42.667C492.891 448 512 428.891 512 405.333v-42.667C512 339.109 492.891 320 469.333 320zm0 85.333h-42.667v-42.667h42.667v42.667zM426.667 277.333v-42.667C426.667 211.109 407.558 192 384 192h-42.667c-23.558 0-42.667 19.109-42.667 42.667v42.667c0 23.558 19.109 42.667 42.667 42.667H384c23.558-.001 42.667-19.11 42.667-42.668zm-85.334-42.666H384v42.667h-42.667v-42.667z"/></svg>
