<svg xmlns="http://www.w3.org/2000/svg" viewBox="0 0 385.213 385.213"><path d="M183.472 3.543 3.691 183.323a12.258 12.258 0 0 0-3.597 8.794c0 .096-.048.168-.048.265v180.455c0 6.641 5.39 12.03 12.03 12.03.096 0 .168-.048.265-.048a12.258 12.258 0 0 0 8.794-3.597l171.384-171.384 171.757 171.757c4.824 4.824 12.644 4.824 17.468 0 2.863-2.863 3.814-6.749 3.284-10.466v-176.99c.529-3.717-.421-7.603-3.284-10.466L201.626 3.555c-2.502-2.502-5.799-3.645-9.083-3.549-3.273-.097-6.569 1.046-9.071 3.537zM360.955 197.82v145.519l-159.329-159.33c-2.502-2.502-5.799-3.645-9.083-3.549-3.272-.096-6.569 1.047-9.071 3.549L24.106 343.362V197.784l168.412-168.4L360.955 197.82z"/></svg>
