<svg viewBox="0 0 8 12" xmlns="http://www.w3.org/2000/svg" xml:space="preserve" style="fill-rule:evenodd;clip-rule:evenodd;stroke-linejoin:round;stroke-miterlimit:2"><path d="M8.202 10.648a.735.735 0 0 1 0-1.01l3.31-3.429A.705.705 0 0 1 12 6c.185 0 .361.076.488.21l-.076-.069.01.008.066.06 3.31 3.429a.735.735 0 0 1 0 1.01.674.674 0 0 1-.975 0l-2.134-2.209v8.847a.71.71 0 0 1-.595.707L12 18c-.38 0-.69-.32-.69-.714V8.439l-2.133 2.209a.675.675 0 0 1-.89.075l-.085-.075Z" style="fill-rule:nonzero" transform="translate(-8.001 -6)"/></svg>
