<svg xmlns="http://www.w3.org/2000/svg" viewBox="0 0 512 512"><path d="M490.667 0c-11.782 0-21.333 9.551-21.333 21.333v277.333c0 94.842-75.825 170.667-170.667 170.667S128 393.509 128 298.667V72.837l48.915 48.915c8.331 8.331 21.839 8.331 30.17 0 8.331-8.331 8.331-21.839 0-30.17L121.752 6.248a21.367 21.367 0 0 0-1.564-1.413c-.246-.202-.505-.377-.757-.566-.305-.228-.603-.464-.92-.676-.303-.203-.617-.378-.928-.564-.286-.171-.567-.351-.862-.509-.317-.17-.643-.313-.967-.466-.307-.145-.61-.299-.925-.43-.315-.13-.636-.235-.956-.35-.337-.121-.67-.25-1.015-.355-.32-.097-.645-.168-.968-.249-.351-.089-.698-.187-1.056-.258-.375-.074-.753-.118-1.13-.172-.311-.044-.618-.104-.933-.135a21.468 21.468 0 0 0-4.211 0c-.315.031-.621.09-.932.135-.378.054-.756.098-1.13.173-.358.071-.704.169-1.055.258-.324.081-.649.152-.969.249-.344.104-.677.233-1.013.354-.32.115-.642.22-.957.35-.315.131-.617.284-.924.429-.324.153-.65.296-.968.466-.295.158-.575.338-.861.509-.311.186-.626.362-.929.565-.316.212-.614.447-.918.675-.253.19-.512.365-.759.567-.544.446-1.067.916-1.564 1.413L6.248 91.582c-8.331 8.331-8.331 21.839 0 30.17 8.331 8.331 21.839 8.331 30.17 0l48.915-48.915v225.83C85.333 417.073 180.261 512 298.667 512S512 417.073 512 298.667V21.333C512 9.551 502.449 0 490.667 0z"/></svg>
