<svg xmlns="http://www.w3.org/2000/svg" viewBox="0 0 384.965 384.965"><path d="M103.383 107.173c-4.403-1.768 1.612.674 0 0z"/><path d="M184.142 3.448 99.593 87.516c-6.232 5.943-4.138 16.469 3.79 19.658 1.612.674 3.32.95 5.041.902h168.184c10.671.289 16.602-12.872 8.927-20.476l-84.2-84.164c-4.645-4.583-12.549-4.583-17.193.012zm63.472 80.76H137.922l54.81-55.279 54.882 55.279zM156.677 156.389c0 19.934 16.157 36.091 36.091 36.091s36.091-16.157 36.091-36.091-16.157-36.091-36.091-36.091-36.091 16.157-36.091 36.091zm48.121 0c0 6.641-5.39 12.03-12.03 12.03-6.641 0-12.03-5.39-12.03-12.03 0-6.641 5.39-12.03 12.03-12.03 6.641 0 12.03 5.39 12.03 12.03zM156.677 252.632c0 19.934 16.157 36.091 36.091 36.091s36.091-16.157 36.091-36.091-16.157-36.091-36.091-36.091-36.091 16.157-36.091 36.091zm48.121 0c0 6.641-5.39 12.03-12.03 12.03-6.641 0-12.03-5.39-12.03-12.03s5.39-12.03 12.03-12.03c6.641 0 12.03 5.389 12.03 12.03zM156.677 348.874c0 19.934 16.157 36.091 36.091 36.091s36.091-16.157 36.091-36.091-16.157-36.091-36.091-36.091-36.091 16.157-36.091 36.091zm48.121 0c0 6.641-5.39 12.03-12.03 12.03-6.641 0-12.03-5.39-12.03-12.03 0-6.641 5.39-12.03 12.03-12.03 6.641 0 12.03 5.39 12.03 12.03z"/></svg>
