<svg xmlns="http://www.w3.org/2000/svg" viewBox="-21 0 512 512"><path d="M352 234.668c0 11.73-9.602 21.332-21.332 21.332-3.203 0-6.188-.64-8.961-1.922l-87.039-40.746-87.043 40.746c-2.773 1.281-5.758 1.922-8.957 1.922-11.734 0-21.336-9.602-21.336-21.332 0-3.203.64-5.977 1.922-8.746l96-213.336C218.454 5.12 225.922 0 234.668 0c8.746 0 16.21 5.121 19.41 12.586l96 213.336c1.281 2.77 1.922 5.543 1.922 8.746zm0 0"/><path d="M234.668 512C105.281 512 0 406.719 0 277.332c0-71.144 31.66-137.469 86.89-181.95 9.196-7.425 22.614-5.933 29.997 3.22 7.379 9.175 5.93 22.613-3.242 29.996-45.102 36.351-70.977 90.539-70.977 148.734 0 105.856 86.121 192 192 192 105.875 0 192-86.144 192-192 0-58.195-25.879-112.383-70.977-148.715-9.195-7.379-10.625-20.82-3.242-29.992 7.422-9.152 20.84-10.645 29.992-3.223 55.235 44.461 86.891 110.786 86.891 181.93C469.332 406.719 364.055 512 234.668 512zm0 0"/></svg>
