<svg xmlns="http://www.w3.org/2000/svg" viewBox="0 0 512 512"><path d="M499.693 324.665 290.917 117.6c-18.825-18.824-51.338-18.824-68.451 0L13.69 324.665C5.133 334.932 0 346.912 0 360.602c0 13.69 5.133 25.67 13.69 34.226 8.557 8.556 22.246 13.69 34.226 13.69 11.979 0 25.67-5.133 34.226-13.69l174.55-174.55 172.839 172.84c18.825 18.824 51.338 18.824 68.451 0 8.557-8.557 13.69-22.246 13.69-34.226 1.711-11.98-3.422-25.671-11.979-34.227zm-25.669 44.493c-5.133 5.133-15.401 5.133-20.535 0L268.671 184.34c-6.845-6.845-17.113-6.845-23.958 0L59.895 370.87c-5.134 5.133-15.402 5.133-20.535 0-3.423-3.423-5.133-6.845-5.133-10.268 0-3.423 1.711-6.845 5.133-10.268l207.064-208.776c3.423-3.423 6.845-5.134 10.268-5.134 3.423 0 6.845 1.712 10.268 5.134l207.065 207.065c3.423 3.423 5.133 6.845 5.133 10.268 0 3.422-1.712 8.556-5.134 10.267z"/></svg>
