<svg xmlns="http://www.w3.org/2000/svg" viewBox="0 0 512.287 512.287"><path d="M469.724 472.335c-39.933-23.767-70.791-50.761-93.599-80.333-41.233-53.462-53.174-109.122-48.352-157.335H437.48c19.006 0 28.524-22.979 15.085-36.418l-192-192c-8.331-8.331-21.839-8.331-30.17 0l-192 192c-13.439 13.439-3.921 36.418 15.085 36.418h85.432c5.089 122.123 88.352 229.782 206.81 263.954 39.862 11.497 72.861 14.411 107.393 13.516 3.903-.108 4.977-.136 5.698-.136 21.677-.001 29.538-28.58 10.911-39.666zm-85.237-8.145c-8.643-1.702-17.573-3.864-26.94-6.565-105.629-30.471-178.533-129.94-176.157-240.141.033-1.864.048-2.552.078-3.415.416-12.063-9.25-22.069-21.321-22.069h-55.163L245.48 51.503 385.977 192H309.48a21.334 21.334 0 0 0-20.686 16.117c-.655 2.596-1.513 6.908-2.331 12.758-8.455 60.43 4.548 130.633 55.876 197.184 12.561 16.287 27.148 31.801 43.846 46.461l-1.698-.33z"/></svg>
