<svg xmlns="http://www.w3.org/2000/svg" viewBox="0 0 512 512"><path d="M271.085 91.582a21.56 21.56 0 0 0-1.563-1.413c-.246-.202-.506-.378-.759-.568-.304-.228-.601-.463-.917-.674-.303-.203-.618-.379-.929-.564-.286-.171-.566-.351-.861-.509-.317-.169-.643-.313-.966-.465-.308-.145-.611-.299-.926-.43-.314-.13-.635-.235-.953-.349-.338-.122-.672-.251-1.018-.356-.318-.096-.642-.167-.963-.248-.353-.089-.702-.188-1.061-.259-.372-.074-.747-.117-1.122-.171-.314-.045-.623-.105-.941-.136-1.4-.138-2.81-.138-4.21 0-.318.031-.627.091-.941.136-.375.054-.75.097-1.122.171-.36.071-.708.17-1.061.259-.322.081-.645.151-.963.248-.346.105-.68.234-1.018.356-.318.114-.639.219-.953.349-.316.131-.618.284-.926.43-.323.152-.649.296-.966.465-.295.158-.575.338-.861.509-.311.186-.626.361-.929.564-.316.211-.613.447-.917.674-.253.19-.513.365-.759.568-.544.446-1.067.916-1.563 1.413L91.582 240.915c-8.331 8.331-8.331 21.839 0 30.17s21.839 8.331 30.17 0L234.667 158.17v332.497c0 11.782 9.551 21.333 21.333 21.333s21.333-9.551 21.333-21.333V158.17l112.915 112.915c8.331 8.331 21.839 8.331 30.17 0s8.331-21.839 0-30.17L271.085 91.582zM106.667 42.667h298.667c11.782 0 21.333-9.551 21.333-21.333C426.667 9.551 417.115 0 405.333 0H106.667C94.885 0 85.333 9.551 85.333 21.333c0 11.782 9.552 21.334 21.334 21.334z"/></svg>
