<svg xmlns="http://www.w3.org/2000/svg" viewBox="0 0 511.999 511.999"><path d="M475.824 274.575 269.145 6.406c-6.832-8.541-20.497-8.541-27.329 0L35.137 277.991c-5.124 5.125-5.124 11.957-1.708 17.081 3.416 5.124 8.541 10.249 15.373 10.249h63.2v189.597c0 10.249 6.832 17.081 17.081 17.081h254.506c10.249 0 17.081-6.832 17.081-17.081V305.321h63.2c10.248 0 17.081-6.832 17.081-17.081-.003-5.124-1.711-10.249-5.127-13.665zm-92.237-5.123v1.708c-10.249 0-17.081 6.832-17.081 17.081v189.598H144.455V288.24c0-10.249-6.832-17.081-17.081-17.081h-44.41L255.48 43.984l172.518 225.468h-44.411z"/></svg>
