<svg xmlns="http://www.w3.org/2000/svg" viewBox="0 0 192.701 192.701"><path d="m20.746 104.169 75.61-74.528 75.61 74.54c4.74 4.704 12.439 4.704 17.179 0s4.74-12.319 0-17.011l-84.2-82.997c-4.559-4.511-12.608-4.535-17.191 0l-84.2 83.009a11.952 11.952 0 0 0 0 17.011c4.753 4.68 12.452 4.68 17.192-.024z"/><path d="M104.946 88.373c-4.559-4.511-12.608-4.535-17.191 0l-84.2 82.997c-4.74 4.704-4.74 12.319 0 17.011 4.74 4.704 12.439 4.704 17.179 0l75.622-74.528 75.61 74.54c4.74 4.704 12.439 4.704 17.179 0s4.74-12.319 0-17.011l-84.199-83.009z"/></svg>
