<svg xmlns="http://www.w3.org/2000/svg" viewBox="0 0 512 512"><path d="m402.067 179.2-128-170.667c-8.533-11.378-25.6-11.378-34.133 0l-128 170.667c-10.548 14.064-.513 34.133 17.067 34.133h64v85.333c0 11.782 9.551 21.333 21.333 21.333h85.333c11.782 0 21.333-9.551 21.333-21.333v-85.333h64c17.58 0 27.614-20.069 17.067-34.133zm-102.4-8.533c-11.782 0-21.333 9.551-21.333 21.333v85.333h-42.667V192c0-11.782-9.551-21.333-21.333-21.333h-42.667L257 56.889l85.333 113.778h-42.666zM299.667 341.333h-85.333c-11.782 0-21.333 9.551-21.333 21.333S202.551 384 214.333 384h85.333c11.782 0 21.333-9.551 21.333-21.333s-9.55-21.334-21.332-21.334zM299.667 405.333h-85.333c-11.782 0-21.333 9.551-21.333 21.333S202.551 448 214.333 448h85.333c11.782 0 21.333-9.551 21.333-21.333s-9.55-21.334-21.332-21.334zM299.667 469.333h-85.333c-11.782 0-21.333 9.551-21.333 21.333S202.551 512 214.333 512h85.333c11.782 0 21.333-9.551 21.333-21.333s-9.55-21.334-21.332-21.334z"/></svg>
