<svg viewBox="0 0 9 9" xmlns="http://www.w3.org/2000/svg" xml:space="preserve" style="fill-rule:evenodd;clip-rule:evenodd;stroke-linejoin:round;stroke-miterlimit:2"><path d="M11.573 11.672a.619.619 0 0 1 .854 0l3.896 3.824a.578.578 0 0 1 0 .832.617.617 0 0 1-.853 0L12 12.92l-3.47 3.408a.617.617 0 0 1-.853 0 .578.578 0 0 1 0-.832l3.896-3.824Zm0-4a.619.619 0 0 1 .854 0l3.896 3.824a.578.578 0 0 1 0 .832.617.617 0 0 1-.853 0L12 8.92l-3.47 3.408a.617.617 0 0 1-.853 0 .578.578 0 0 1 0-.832l3.896-3.824Z" style="fill-rule:nonzero" transform="translate(-7.5 -7.5)"/></svg>
