<svg xmlns="http://www.w3.org/2000/svg" viewBox="0 0 384.985 384.985"><path d="M192.486 0c-2.827 0-6.436 1.408-8.481 3.441l-84.2 82.997c-4.74 4.704-4.74 12.319 0 17.011 4.752 4.704 12.439 4.704 17.191 0l63.46-62.57v171.648l-80.868 79.725c-4.74 4.704-4.74 12.319 0 17.011 4.752 4.704 12.439 4.704 17.191 0l63.676-62.786v38.232l-80.868 79.725c-4.74 4.704-4.74 12.319 0 17.011 4.752 4.704 12.439 4.704 17.191 0l75.61-74.528 75.61 74.54c4.74 4.704 12.439 4.704 17.191 0 4.74-4.704 4.74-12.319 0-17.011l-80.675-79.52v-38.22l63.472 62.57c4.74 4.704 12.439 4.704 17.191 0 4.74-4.704 4.752-12.319 0-17.011l-80.663-79.52V40.674l63.688 62.786c4.74 4.704 12.439 4.704 17.191 0 4.74-4.704 4.74-12.319 0-17.011l-84.2-83.009C198.886 1.155 195.698 0 192.486 0z"/></svg>
