<svg viewBox="0 0 28 28" xmlns="http://www.w3.org/2000/svg" xml:space="preserve" style="fill-rule:evenodd;clip-rule:evenodd;stroke-linejoin:round;stroke-miterlimit:2"><path d="M16 2C8.28 2 2 8.28 2 16s6.28 14 14 14 14-6.28 14-14S23.72 2 16 2Zm0 26C9.383 28 4 22.617 4 16S9.383 4 16 4s12 5.383 12 12-5.383 12-12 12Zm7.753-8.659a1 1 0 0 1-1.506 1.318L16 13.519l-6.247 7.14a1.001 1.001 0 0 1-1.506-1.318l7-8c.381-.433 1.125-.433 1.506 0l7 8Z" style="fill-rule:nonzero" transform="translate(-2 -2)"/></svg>
