<svg xmlns="http://www.w3.org/2000/svg" viewBox="0 0 384.97 384.97"><path d="M360.595 12.03V228.576h-.301c-3.176 73.589-63.664 132.333-138.048 132.333-74.371 0-134.872-58.744-138.048-132.333h-.301V40.446l39.628 39.628c4.68 4.68 12.331 4.68 17.011 0s4.68-12.331 0-17.011l-59.55-59.55C78.568 1.095 75.368-.012 72.18.06c-3.188-.072-6.388 1.035-8.806 3.453l-59.55 59.55c-4.68 4.68-4.68 12.331 0 17.011s12.331 4.68 17.011 0l39.002-39.002v187.504c0 .71.289 1.311.409 1.985 4.199 85.957 75.009 154.409 162 154.409 89.698 0 162.409-72.711 162.409-162.409 0-1.624-.193-3.2-.241-4.824.048-.409.241-.77.241-1.191V12.03c0-6.617-5.414-12.03-12.03-12.03s-12.03 5.414-12.03 12.03z"/></svg>
