<svg xmlns="http://www.w3.org/2000/svg" viewBox="0 0 384.861 384.861"><path d="m183.934 3.441-84.2 82.997c-4.74 4.704-4.74 12.319 0 17.011 4.752 4.704 12.439 4.704 17.191 0l63.472-62.57v135.557l-80.856 79.701c-2.045 2.033-3.573 5.534-3.573 8.517v108.273c0 10.502 13.257 15.916 20.74 8.505l75.61-74.54 75.61 74.54c7.302 7.23 20.524 2.298 20.524-9.612V265.761c0-3.513-.674-6.978-3.344-9.624l-80.651-79.508V40.674l63.688 62.786c4.74 4.704 12.439 4.704 17.191 0 4.74-4.704 4.74-12.319 0-17.011l-84.2-83.009C198.828 1.167 195.652 0 192.439 0c-2.851 0-6.46 1.408-8.505 3.441zm80.447 266.242v74.311l-59.935-59.081v-74.311l59.935 59.081zm-83.996 15.026-60.368 59.514V269.9l60.368-59.514v74.323z"/></svg>
